<?xml version="1.0" standalone="no"?>
<!DOCTYPE svg PUBLIC "-//W3C//DTD SVG 20010904//EN"
 "http://www.w3.org/TR/2001/REC-SVG-20010904/DTD/svg10.dtd">
<svg version="1.0" xmlns="http://www.w3.org/2000/svg"
 width="160.000000pt" height="160.000000pt" viewBox="0 0 160.000000 160.000000"
 preserveAspectRatio="xMidYMid meet">
<metadata>
Created by potrace 1.11, written by Peter Selinger 2001-2013
</metadata>
<g transform="translate(0.000000,160.000000) scale(0.100000,-0.100000)"
fill="#000000" stroke="none">
<path d="M822 1548 c-40 -4 -81 -12 -92 -18 -10 -5 -30 -10 -43 -10 -59 0
-199 -84 -284 -172 -47 -48 -122 -172 -135 -224 -5 -19 -11 -21 -49 -17 -38 4
-47 1 -69 -22 -52 -55 -19 -146 63 -173 26 -8 28 -10 10 -11 -33 -1 -29 -29 5
-33 34 -4 45 -43 12 -45 -45 -4 -90 -26 -110 -53 -29 -41 -25 -73 14 -112 70
-69 80 -72 128 -28 18 16 35 30 38 30 3 0 13 -13 23 -29 42 -72 114 -155 161
-187 166 -112 412 -138 646 -68 127 37 243 124 312 235 44 70 63 123 84 237
16 81 16 102 5 170 -43 259 -214 440 -484 511 -92 25 -144 29 -235 19z m15
-54 c-3 -3 -12 -4 -19 -1 -8 3 -5 6 6 6 11 1 17 -2 13 -5z m188 -9 c202 -38
376 -189 438 -381 25 -74 39 -225 27 -280 -37 -163 -129 -290 -260 -358 -115
-60 -184 -78 -310 -83 -135 -6 -233 11 -325 56 -69 34 -168 119 -192 165 -26
49 -64 133 -50 112 7 -10 25 -39 41 -63 41 -63 88 -108 174 -164 119 -78 167
-93 307 -93 131 0 176 10 286 63 135 67 230 167 279 297 41 110 23 318 -37
437 -71 141 -285 269 -497 297 l-61 7 52 2 c28 0 86 -6 128 -14z m27 -56 c97
-32 158 -67 220 -127 118 -113 161 -215 162 -392 1 -104 -1 -120 -25 -170 -68
-144 -273 -294 -436 -320 -177 -29 -350 33 -489 175 -113 115 -154 208 -154
346 0 82 78 272 142 344 124 142 390 208 580 144z m-473 -14 c-81 -42 -218
-213 -242 -302 -6 -24 -15 -43 -19 -43 -12 0 -10 10 13 77 31 92 151 226 254
282 11 5 25 10 30 10 6 0 -11 -11 -36 -24z m-308 -666 c16 -31 10 -54 -21 -72
-24 -15 -34 -16 -52 -6 -42 22 -48 40 -25 71 17 23 28 28 55 26 20 -1 37 -9
43 -19z"/>
<path d="M805 1401 c-33 -3 -53 -9 -45 -12 8 -3 62 0 120 6 82 10 92 12 45 12
-33 0 -87 -3 -120 -6z"/>
<path d="M496 1204 c-26 -36 -46 -68 -44 -70 4 -3 69 86 92 124 20 33 -5 5
-48 -54z"/>
<path d="M200 705 c0 -9 9 -15 25 -15 16 0 25 6 25 15 0 9 -9 15 -25 15 -16 0
-25 -6 -25 -15z"/>
<path d="M200 520 c0 -10 -9 -24 -20 -30 -25 -13 -50 -61 -50 -96 0 -16 12
-38 34 -60 29 -29 41 -34 79 -34 60 0 73 6 97 45 19 32 20 34 3 81 -22 60 -34
69 -90 74 -16 1 -22 4 -15 7 22 9 13 33 -13 33 -18 0 -25 -5 -25 -20z m90 -89
c23 -45 -1 -80 -50 -73 -50 8 -60 13 -60 35 0 23 20 62 20 40 0 -7 11 -13 25
-13 16 0 25 6 25 15 0 22 27 19 40 -4z"/>
<path d="M200 255 c0 -9 9 -15 25 -15 16 0 25 6 25 15 0 9 -9 15 -25 15 -16 0
-25 -6 -25 -15z"/>
<path d="M190 200 c-11 -11 -24 -20 -29 -20 -16 0 -41 -43 -41 -70 0 -16 14
-40 37 -64 37 -37 39 -38 93 -33 43 5 60 12 78 32 22 26 30 69 13 79 -4 3 -11
19 -14 35 -11 53 -99 79 -137 41z m92 -71 c14 -23 15 -35 8 -50 -13 -23 -40
-25 -40 -4 0 9 -9 15 -25 15 -14 0 -25 -5 -25 -12 0 -9 -3 -9 -11 -1 -20 20
-2 59 33 70 18 6 35 11 38 12 3 0 13 -13 22 -30z"/>
</g>
</svg>
